<svg xmlns="http://www.w3.org/2000/svg" width="30" height="24" viewBox="0 0 30 24">
    <path fill="#F3F3F8" fill-rule="evenodd" d="M23.613 9.911c.354-2.366-1.447-3.637-3.91-4.486l.798-3.204-1.951-.486-.778 3.12a77.932 77.932 0 0 0-1.563-.368l.784-3.14-1.95-.486-.8 3.203a62.482 62.482 0 0 1-1.246-.294l.002-.01-2.69-.671-.52 2.083s1.448.332 1.417.352c.79.197.933.72.91 1.135l-2.19 8.78c-.096.24-.342.6-.893.463.019.028-1.418-.354-1.418-.354l-.97 2.233 2.54.632c.473.119.935.243 1.391.359l-.807 3.241 1.948.486.8-3.207c.532.144 1.049.278 1.554.403l-.797 3.192 1.951.486.808-3.235c3.326.63 5.828.376 6.881-2.633.849-2.422-.043-3.82-1.793-4.73 1.278-.294 2.238-1.132 2.492-2.864zm-4.456 6.25c-.603 2.423-4.681 1.113-6.004.786l1.07-4.295c1.324.33 5.564.984 4.934 3.51zm.603-6.284c-.55 2.203-3.945 1.084-5.046.809l.972-3.895c1.1.274 4.647.787 4.074 3.086z"/>
</svg>
