<svg xmlns="http://www.w3.org/2000/svg" width="30" height="24" viewBox="0 0 30 24">
    <path fill="#F3F3F8" fill-rule="nonzero" d="M0 3h8.567a11.25 11.25 0 0 0 0 18.462H0V3zm15 0a9.23 9.23 0 1 1 0 18.462A9.23 9.23 0 0 1 15 3zm15 0v18.462h-8.567a11.25 11.25 0 0 0 0-18.462H30zM17.975 9.16c-.414-1.17-1.55-1.314-2.886-1.103l-.415-1.664-1.012.253.403 1.62c-.266.066-.537.14-.806.212l-.406-1.63-1.013.252.415 1.663c-.218.06-.433.117-.642.17l-.002-.005-1.397.347.27 1.082s.744-.2.736-.184c.41-.102.603.103.693.299l.472 1.895a.874.874 0 0 1 .11-.02l-.108.027.662 2.656c.014.133-.01.358-.297.43.016.008-.736.183-.736.183l.1 1.26 1.318-.329c.245-.06.488-.116.725-.174l.42 1.683 1.012-.252-.415-1.665c.279-.064.548-.129.81-.194l.413 1.657 1.013-.253-.418-1.68c1.678-.521 2.763-1.248 2.512-2.884-.202-1.317-.95-1.74-1.975-1.731.513-.446.749-1.064.444-1.92zm-.52 3.952c.315 1.257-1.875 1.651-2.56 1.823l-.556-2.23c.686-.17 2.79-.905 3.116.407zM16.2 10.084c.285 1.144-1.544 1.458-2.116 1.6l-.504-2.021c.572-.143 2.322-.773 2.62.42z"/>
</svg>
