<svg xmlns="http://www.w3.org/2000/svg" width="30" height="24" viewBox="0 0 30 24">
    <g fill="none" fill-rule="evenodd">
        <path fill="#F3F3F8" d="M7.195 16.235V5.325l7.866 7.865 7.865-7.866v10.911h3.267c.525-1.33.807-2.783.807-4.296C27 5.365 21.655.02 15.08.02 8.507.02 3.162 5.365 3.162 11.94c0 1.512.283 2.964.807 4.295h3.227z"/>
        <path fill="#CCC" d="M22.946 18.534h-2.48V11.94l-5.385 5.022-5.385-5.022v6.595H5.158a7.359 7.359 0 0 1-.323-.524 11.895 11.895 0 0 0 10.266 5.849c4.134 0 7.785-2.118 9.923-5.325h-2.078z"/>
    </g>
</svg>
